<svg width="24" height="24" viewBox="0 0 24 24" fill="none" xmlns="http://www.w3.org/2000/svg">
<g clip-path="url(#clip0_4_596)">
<path d="M11.3 19.3C11.1167 19.1167 11.0207 18.8833 11.012 18.6C11.0033 18.3167 11.091 18.0833 11.275 17.9L16.175 13H5C4.71667 13 4.479 12.904 4.287 12.712C4.095 12.52 3.99934 12.2827 4 12C4 11.7167 4.096 11.479 4.288 11.287C4.48 11.095 4.71734 10.9993 5 11H16.175L11.275 6.1C11.0917 5.91667 11.004 5.68334 11.012 5.4C11.02 5.11667 11.116 4.88334 11.3 4.7C11.4833 4.51667 11.7167 4.425 12 4.425C12.2833 4.425 12.5167 4.51667 12.7 4.7L19.3 11.3C19.4 11.3833 19.471 11.4877 19.513 11.613C19.555 11.7383 19.5757 11.8673 19.575 12C19.575 12.1333 19.5543 12.2583 19.513 12.375C19.4717 12.4917 19.4007 12.6 19.3 12.7L12.7 19.3C12.5167 19.4833 12.2833 19.575 12 19.575C11.7167 19.575 11.4833 19.4833 11.3 19.3Z" fill="black"/>
</g>
<defs>
<clipPath id="clip0_4_596">
<rect width="24" height="24" fill="white"/>
</clipPath>
</defs>
</svg>
