<svg width="24" height="24" viewBox="0 0 24 24" fill="none" xmlns="http://www.w3.org/2000/svg">
<g clip-path="url(#clip0_4_602)">
<path d="M11.9999 14.95C11.8666 14.95 11.7416 14.9293 11.6249 14.888C11.5083 14.8467 11.3999 14.7757 11.2999 14.675L6.67494 10.05C6.49161 9.86667 6.40427 9.63734 6.41294 9.36201C6.42161 9.08667 6.51727 8.85767 6.69994 8.67501C6.88327 8.49167 7.11661 8.40001 7.39994 8.40001C7.68327 8.40001 7.91661 8.49167 8.09994 8.67501L11.9999 12.575L15.9249 8.65001C16.1083 8.46667 16.3376 8.37901 16.6129 8.38701C16.8883 8.39501 17.1173 8.49101 17.2999 8.67501C17.4833 8.85834 17.5749 9.09167 17.5749 9.37501C17.5749 9.65834 17.4833 9.89167 17.2999 10.075L12.6999 14.675C12.5999 14.775 12.4916 14.846 12.3749 14.888C12.2583 14.93 12.1333 14.9507 11.9999 14.95Z" fill="black"/>
</g>
<defs>
<clipPath id="clip0_4_602">
<rect width="24" height="24" fill="white"/>
</clipPath>
</defs>
</svg>
