<svg width="24" height="24" viewBox="0 0 24 24" fill="none" xmlns="http://www.w3.org/2000/svg">
<g clip-path="url(#clip0_4_599)">
<path d="M8.70005 17.3C8.51672 17.1167 8.42505 16.8833 8.42505 16.6C8.42505 16.3167 8.51672 16.0833 8.70005 15.9L12.6 12L8.70005 8.1C8.51672 7.91667 8.42505 7.68334 8.42505 7.4C8.42505 7.11667 8.51672 6.88334 8.70005 6.7C8.88338 6.51667 9.11671 6.425 9.40005 6.425C9.68338 6.425 9.91672 6.51667 10.1 6.7L14.7 11.3C14.8 11.4 14.871 11.5083 14.913 11.625C14.955 11.7417 14.9757 11.8667 14.975 12C14.975 12.1333 14.954 12.2583 14.912 12.375C14.87 12.4917 14.7994 12.6 14.7 12.7L10.1 17.3C9.91672 17.4833 9.68338 17.575 9.40005 17.575C9.11671 17.575 8.88338 17.4833 8.70005 17.3Z" fill="black"/>
</g>
<defs>
<clipPath id="clip0_4_599">
<rect width="24" height="24" fill="white"/>
</clipPath>
</defs>
</svg>
