<svg width="24" height="24" viewBox="0 0 24 24" fill="none" xmlns="http://www.w3.org/2000/svg">
<g clip-path="url(#clip0_4_610)">
<path d="M12 19C11.7167 19 11.479 18.904 11.287 18.712C11.095 18.52 10.9993 18.2827 11 18V13H6C5.71667 13 5.479 12.904 5.287 12.712C5.095 12.52 4.99934 12.2827 5 12C5 11.7167 5.096 11.479 5.288 11.287C5.48 11.095 5.71734 10.9993 6 11H11V6C11 5.71667 11.096 5.479 11.288 5.287C11.48 5.095 11.7173 4.99934 12 5C12.2833 5 12.521 5.096 12.713 5.288C12.905 5.48 13.0007 5.71734 13 6V11H18C18.2833 11 18.521 11.096 18.713 11.288C18.905 11.48 19.0007 11.7173 19 12C19 12.2833 18.904 12.521 18.712 12.713C18.52 12.905 18.2827 13.0007 18 13H13V18C13 18.2833 12.904 18.521 12.712 18.713C12.52 18.905 12.2827 19.0007 12 19Z" fill="black"/>
</g>
<defs>
<clipPath id="clip0_4_610">
<rect width="24" height="24" fill="white"/>
</clipPath>
</defs>
</svg>
