<svg width="24" height="24" viewBox="0 0 24 24" fill="none" xmlns="http://www.w3.org/2000/svg">
<g clip-path="url(#clip0_4_601)">
<path d="M6.70005 14.675C6.51672 14.4917 6.42505 14.2583 6.42505 13.975C6.42505 13.6917 6.51672 13.4583 6.70005 13.275L11.3 8.67499C11.4 8.57499 11.5084 8.50399 11.625 8.46199C11.7417 8.41999 11.8667 8.39933 12 8.39999C12.1334 8.39999 12.2584 8.42099 12.375 8.46299C12.4917 8.50499 12.6 8.57566 12.7 8.67499L17.325 13.3C17.5084 13.4833 17.6 13.7083 17.6 13.975C17.6 14.2417 17.5 14.475 17.3 14.675C17.1167 14.8583 16.8834 14.95 16.6 14.95C16.3167 14.95 16.0834 14.8583 15.9 14.675L12 10.775L8.07505 14.7C7.89172 14.8833 7.66672 14.975 7.40005 14.975C7.13338 14.975 6.90005 14.875 6.70005 14.675Z" fill="black"/>
</g>
<defs>
<clipPath id="clip0_4_601">
<rect width="24" height="24" fill="white"/>
</clipPath>
</defs>
</svg>
