<svg width="24" height="24" viewBox="0 0 24 24" fill="none" xmlns="http://www.w3.org/2000/svg">
<g clip-path="url(#clip0_4_605)">
<path d="M14.35 20.775L9 18.9L4.35 20.7C4.01667 20.8333 3.70833 20.796 3.425 20.588C3.14167 20.38 3 20.1007 3 19.75V5.74999C3 5.53333 3.06267 5.34166 3.188 5.17499C3.31333 5.00833 3.484 4.88333 3.7 4.79999L8.35 3.22499C8.56667 3.15833 8.78333 3.12066 9 3.11199C9.21667 3.10333 9.43333 3.14099 9.65 3.22499L15 5.09999L19.65 3.29999C19.9833 3.16666 20.2917 3.20433 20.575 3.41299C20.8583 3.62166 21 3.90066 21 4.24999V18.25C21 18.4667 20.9377 18.6583 20.813 18.825C20.6883 18.9917 20.5173 19.1167 20.3 19.2L15.65 20.775C15.4333 20.8417 15.2167 20.8793 15 20.888C14.7833 20.8967 14.5667 20.859 14.35 20.775ZM14 18.55V6.84999L10 5.44999V17.15L14 18.55Z" fill="black"/>
</g>
<defs>
<clipPath id="clip0_4_605">
<rect width="24" height="24" fill="white"/>
</clipPath>
</defs>
</svg>
