<svg width="24" height="24" viewBox="0 0 24 24" fill="none" xmlns="http://www.w3.org/2000/svg">
<g clip-path="url(#clip0_4_611)">
<path d="M15.1249 21.1L6.69994 12.7C6.59994 12.6 6.52894 12.4917 6.48694 12.375C6.44494 12.2583 6.42428 12.1333 6.42494 12C6.42494 11.8667 6.44561 11.7417 6.48694 11.625C6.52828 11.5083 6.59928 11.4 6.69994 11.3L15.1249 2.87499C15.3583 2.64166 15.6499 2.52499 15.9999 2.52499C16.3499 2.52499 16.6499 2.64999 16.8999 2.89999C17.1499 3.14999 17.2749 3.44166 17.2749 3.77499C17.2749 4.10833 17.1499 4.39999 16.8999 4.64999L9.54994 12L16.8999 19.35C17.1333 19.5833 17.2499 19.871 17.2499 20.213C17.2499 20.555 17.1249 20.8507 16.8749 21.1C16.6249 21.35 16.3333 21.475 15.9999 21.475C15.6666 21.475 15.3749 21.35 15.1249 21.1Z" fill="black"/>
</g>
<defs>
<clipPath id="clip0_4_611">
<rect width="24" height="24" fill="white"/>
</clipPath>
</defs>
</svg>
