<svg width="24" height="24" viewBox="0 0 24 24" fill="none" xmlns="http://www.w3.org/2000/svg">
<g clip-path="url(#clip0_4_604)">
<path d="M12 12C12.55 12 13.021 11.804 13.413 11.412C13.805 11.02 14.0007 10.5493 14 10C14 9.45 13.804 8.979 13.412 8.587C13.02 8.195 12.5493 7.99933 12 8C11.45 8 10.979 8.196 10.587 8.588C10.195 8.98 9.99933 9.45067 10 10C10 10.55 10.196 11.021 10.588 11.413C10.98 11.805 11.4507 12.0007 12 12ZM12 21.625C11.8667 21.625 11.7333 21.6 11.6 21.55C11.4667 21.5 11.35 21.4333 11.25 21.35C8.81667 19.2 7 17.204 5.8 15.362C4.6 13.52 4 11.7993 4 10.2C4 7.7 4.80433 5.70833 6.413 4.225C8.02167 2.74167 9.884 2 12 2C14.1167 2 15.9793 2.74167 17.588 4.225C19.1967 5.70833 20.0007 7.7 20 10.2C20 11.8 19.4 13.521 18.2 15.363C17 17.205 15.1833 19.2007 12.75 21.35C12.65 21.4333 12.5333 21.5 12.4 21.55C12.2667 21.6 12.1333 21.625 12 21.625Z" fill="black"/>
</g>
<defs>
<clipPath id="clip0_4_604">
<rect width="24" height="24" fill="white"/>
</clipPath>
</defs>
</svg>
