<svg width="24" height="24" viewBox="0 0 24 24" fill="none" xmlns="http://www.w3.org/2000/svg">
<g clip-path="url(#clip0_4_593)">
<path d="M7.15002 21.1C6.90002 20.85 6.77502 20.554 6.77502 20.212C6.77502 19.87 6.90002 19.5743 7.15002 19.325L14.475 12L7.12502 4.65C6.89169 4.41667 6.77502 4.125 6.77502 3.775C6.77502 3.425 6.90002 3.125 7.15002 2.875C7.40002 2.625 7.69602 2.5 8.03802 2.5C8.38002 2.5 8.67569 2.625 8.92502 2.875L17.325 11.3C17.425 11.4 17.496 11.5083 17.538 11.625C17.58 11.7417 17.6007 11.8667 17.6 12C17.6 12.1333 17.579 12.2583 17.537 12.375C17.495 12.4917 17.4244 12.6 17.325 12.7L8.90002 21.125C8.66669 21.3583 8.37902 21.475 8.03702 21.475C7.69502 21.475 7.39936 21.35 7.15002 21.1Z" fill="black"/>
</g>
<defs>
<clipPath id="clip0_4_593">
<rect width="24" height="24" fill="white"/>
</clipPath>
</defs>
</svg>
